<mxfile host="app.diagrams.net" modified="2021-09-10T09:27:17.485Z" agent="5.0 (Windows NT 10.0; Win64; x64) AppleWebKit/537.36 (KHTML, like Gecko) Chrome/72.0.3626.119 Safari/537.36" etag="QvkjCcUdvWElXx_PY2YW" version="15.0.3" type="github">
  <diagram id="vXhUcmJKa51xvvW7BHYS" name="第 1 页">
    <mxGraphModel dx="1422" dy="762" grid="1" gridSize="10" guides="1" tooltips="1" connect="1" arrows="1" fold="1" page="1" pageScale="1" pageWidth="827" pageHeight="1169" math="0" shadow="0">
      <root>
        <mxCell id="0" />
        <mxCell id="1" parent="0" />
        <mxCell id="Ddps5BFudp-LSdYfEYUz-2" style="edgeStyle=orthogonalEdgeStyle;rounded=0;orthogonalLoop=1;jettySize=auto;html=1;" edge="1" parent="1" source="SytYHHwIrSK4RHX7r308-1" target="Ddps5BFudp-LSdYfEYUz-1">
          <mxGeometry relative="1" as="geometry" />
        </mxCell>
        <mxCell id="SytYHHwIrSK4RHX7r308-1" value="APP-昨日收益" style="rounded=1;whiteSpace=wrap;html=1;" parent="1" vertex="1">
          <mxGeometry x="230" y="100" width="120" height="60" as="geometry" />
        </mxCell>
        <mxCell id="Ddps5BFudp-LSdYfEYUz-4" style="edgeStyle=orthogonalEdgeStyle;rounded=0;orthogonalLoop=1;jettySize=auto;html=1;" edge="1" parent="1" source="Ddps5BFudp-LSdYfEYUz-1" target="Ddps5BFudp-LSdYfEYUz-3">
          <mxGeometry relative="1" as="geometry" />
        </mxCell>
        <mxCell id="Ddps5BFudp-LSdYfEYUz-5" value="净值日期为上个交易日" style="edgeLabel;html=1;align=center;verticalAlign=middle;resizable=0;points=[];" vertex="1" connectable="0" parent="Ddps5BFudp-LSdYfEYUz-4">
          <mxGeometry x="-0.2667" y="1" relative="1" as="geometry">
            <mxPoint x="-1" y="6" as="offset" />
          </mxGeometry>
        </mxCell>
        <mxCell id="Ddps5BFudp-LSdYfEYUz-7" style="edgeStyle=orthogonalEdgeStyle;rounded=0;orthogonalLoop=1;jettySize=auto;html=1;" edge="1" parent="1" source="Ddps5BFudp-LSdYfEYUz-1" target="Ddps5BFudp-LSdYfEYUz-6">
          <mxGeometry relative="1" as="geometry" />
        </mxCell>
        <mxCell id="Ddps5BFudp-LSdYfEYUz-8" value="净值日期非上个交易日" style="edgeLabel;html=1;align=center;verticalAlign=middle;resizable=0;points=[];" vertex="1" connectable="0" parent="Ddps5BFudp-LSdYfEYUz-7">
          <mxGeometry x="0.3231" y="-2" relative="1" as="geometry">
            <mxPoint x="-29" y="-2" as="offset" />
          </mxGeometry>
        </mxCell>
        <mxCell id="Ddps5BFudp-LSdYfEYUz-1" value="检查份额" style="rounded=1;whiteSpace=wrap;html=1;" vertex="1" parent="1">
          <mxGeometry x="230" y="220" width="120" height="60" as="geometry" />
        </mxCell>
        <mxCell id="Ddps5BFudp-LSdYfEYUz-3" value="显示接口返回的收益" style="rounded=1;whiteSpace=wrap;html=1;" vertex="1" parent="1">
          <mxGeometry x="230" y="400" width="120" height="60" as="geometry" />
        </mxCell>
        <mxCell id="Ddps5BFudp-LSdYfEYUz-6" value="app根据净值数据计算昨日收益" style="rounded=1;whiteSpace=wrap;html=1;" vertex="1" parent="1">
          <mxGeometry x="530" y="220" width="120" height="60" as="geometry" />
        </mxCell>
      </root>
    </mxGraphModel>
  </diagram>
</mxfile>
